# xmcd
# 
# Track frame offsets:
#     150
#     8776
#     28269
#     43848
#     63388
#     82407
#     120764
#     142506
#     160692
#     187917
#     210808
# 
# Disc length: 3036
# 
# Revision: 3
# Processed by: cddbd v1.5.2PL0 Copyright (c) Steve Scherf et al.
# Submitted via: fre:ac v1.0.31
# 
DISCID=810bda0b
DTITLE=Eric Gales - The Bookends
DYEAR=2019
DGENRE=Blues
TTITLE0=Intro
TTITLE1=Something's Gotta Give (feat. B. Slade)
TTITLE2=Whatcha Gon' Do
TTITLE3=It Just Beez That Way
TTITLE4=How Do I Get You
TTITLE5=Southpaw Serenade (feat. Doyle Bramhall II)
TTITLE6=Reaching For a Change
TTITLE7=Somebody Lied
TTITLE8=With a Little Help From My Friends (feat. Beth Hart)
TTITLE9=Resolution
TTITLE10=Pedal to the Metal (feat. B. Slade) [Remix] [Bonus Track]
EXTD=
EXTT0=
EXTT1=
EXTT2=
EXTT3=
EXTT4=
EXTT5=
EXTT6=
EXTT7=
EXTT8=
EXTT9=
EXTT10=
PLAYORDER=
